# xmcd
#
# Track frame offsets:
#	150
#	20328
#	37398
#
# Disc length: 772 seconds
#
# Revision: 0
# Processed by: cddbd v1.4PL0 Copyright (c) Steve Scherf et al.
# Submitted via: audiograbber 1.80
#
DISCID=21030203
DTITLE=Immature - I Dont Mind
DYEAR=1900
DGENRE=
TTITLE0=I dont Mind 
TTITLE1=i dont mind (ghetto)
TTITLE2=dont mind (padapella)
EXTD=
EXTT0=
EXTT1=
EXTT2=
PLAYORDER=
